<svg width="35" height="36" viewBox="0 0 35 36" fill="none" xmlns="http://www.w3.org/2000/svg">
<rect y="0.311523" width="35" height="35" rx="5.25" fill="#666666" fill-opacity="0.5"/>
<path d="M8.28746 17.3673L20.7964 12.3028C22.0312 11.7753 26.2188 10.0872 26.2188 10.0872C26.2188 10.0872 28.1515 9.34859 27.9905 11.1422C27.9368 11.8808 27.5073 14.4658 27.0778 17.2618L25.7356 25.5443C25.7356 25.5443 25.6282 26.7576 24.7156 26.9686C23.8029 27.1796 22.2997 26.2301 22.0312 26.019C21.8165 25.8608 18.0047 23.4868 16.6089 22.3262C16.2331 22.0097 15.8036 21.3766 16.6626 20.6381C18.5953 18.8972 20.9038 16.7342 22.2997 15.3626C22.9439 14.7296 23.5882 13.2524 20.9038 15.0461L13.334 20.0578C13.334 20.0578 12.475 20.5853 10.8644 20.1105C9.25382 19.6357 7.37478 19.0027 7.37478 19.0027C7.37478 19.0027 6.0863 18.2114 8.28746 17.3673Z" fill="#B3B3B3"/>
</svg>
