<svg width="35" height="36" viewBox="0 0 35 36" fill="none" xmlns="http://www.w3.org/2000/svg">
<rect y="0.311523" width="35" height="35" rx="5.25" fill="#666666" fill-opacity="0.5"/>
<path d="M12.7997 25.0596L13.1172 25.2478C14.4512 26.0395 15.9807 26.4582 17.5404 26.459H17.5438C22.3338 26.459 26.2323 22.5614 26.2341 17.7711C26.2349 15.4495 25.3319 13.2668 23.6911 11.6245C22.0502 9.98252 19.8685 9.07762 17.5469 9.07666C12.7533 9.07666 8.85476 12.9737 8.85295 17.764C8.85232 19.4055 9.31152 21.0042 10.1816 22.3873L10.3884 22.7161L9.51024 25.922L12.7997 25.0596ZM7 28.4053L8.48333 22.989C7.56839 21.4038 7.08707 19.6056 7.08783 17.7635C7.09006 12.0003 11.7802 7.31152 17.544 7.31152C20.3409 7.31273 22.966 8.40123 24.9402 10.377C26.9141 12.3527 28.0008 14.9789 27.9999 17.7719C27.9975 23.5348 23.3063 28.2245 17.544 28.2245C17.5442 28.2245 17.5436 28.2245 17.544 28.2245H17.5395C15.7897 28.2239 14.0702 27.7849 12.5431 26.952L7 28.4053Z" fill="white"/>
<path d="M7.08783 17.7658C7.08719 19.6078 7.56852 21.4063 8.48345 22.9913L7 28.4073L12.5429 26.954C14.0701 27.7868 15.7895 28.2257 17.5394 28.2264H17.5438C23.3061 28.2264 27.9973 23.5368 27.9997 17.7739C28.0007 14.9807 26.9139 12.3546 24.94 10.3789C22.9658 8.40331 20.3407 7.31468 17.5438 7.31348C11.7803 7.31348 7.09006 12.0022 7.08765 17.7654M10.3885 22.7182L10.1816 22.3896C9.31153 21.0063 8.85233 19.4076 8.85296 17.7662C8.85486 12.9762 12.7533 9.07891 17.5469 9.07891C19.8683 9.07981 22.05 9.9848 23.6911 11.6268C25.332 13.2688 26.2349 15.4517 26.2343 17.773C26.2321 22.5634 22.3336 26.4609 17.5436 26.4609H17.5402C15.9805 26.46 14.451 26.0414 13.117 25.2498L12.7995 25.0616L9.51012 25.924L10.3885 22.7182ZM17.5438 28.2264C17.5437 28.2264 17.5436 28.2264 17.5438 28.2264Z" fill="#B3B3B3"/>
<path fill-rule="evenodd" clip-rule="evenodd" d="M14.9306 13.396C14.7349 12.9609 14.5289 12.9522 14.3427 12.9445C14.1904 12.9381 14.0161 12.9385 13.8421 12.9385C13.6678 12.9385 13.3848 13.0039 13.1454 13.2653C12.9059 13.5268 12.231 14.1588 12.231 15.4441C12.231 16.7296 13.1673 17.9716 13.2977 18.1461C13.4284 18.3203 15.1051 21.0424 17.7604 22.0895C19.9674 22.9598 20.4165 22.7867 20.8955 22.7431C21.3745 22.6996 22.4412 22.1113 22.6589 21.5012C22.8766 20.8912 22.8766 20.3684 22.8113 20.2592C22.7461 20.1503 22.5718 20.0849 22.3105 19.9543C22.0492 19.8237 20.7648 19.1916 20.5254 19.1044C20.2858 19.0173 20.1117 18.9738 19.9374 19.2354C19.7632 19.4966 19.2629 20.0849 19.1104 20.2592C18.958 20.4338 18.8056 20.4556 18.5443 20.3249C18.283 20.1938 17.4415 19.9182 16.4434 19.0283C15.6667 18.3358 15.1424 17.4806 14.9899 17.219C14.8375 16.9578 14.9736 16.8163 15.1046 16.686C15.222 16.569 15.366 16.381 15.4966 16.2285C15.627 16.0759 15.6705 15.9671 15.7576 15.7928C15.8447 15.6184 15.8012 15.4658 15.7359 15.3352C15.6705 15.2045 15.1629 13.9126 14.9306 13.396Z" fill="#B3B3B3"/>
</svg>
