<svg width="35" height="36" viewBox="0 0 35 36" fill="none" xmlns="http://www.w3.org/2000/svg">
<rect y="0.311523" width="35" height="35" rx="5.25" fill="#666666" fill-opacity="0.5"/>
<path d="M27.5609 13.1072C27.3189 12.2031 26.6084 11.4926 25.7043 11.2506C24.0673 10.8115 17.5 10.8115 17.5 10.8115C17.5 10.8115 10.9327 10.8115 9.29568 11.2506C8.39159 11.4926 7.6811 12.2031 7.43908 13.1072C7 14.7443 7 18.1619 7 18.1619C7 18.1619 7 21.5795 7.43908 23.2166C7.6811 24.1207 8.39159 24.8311 9.29568 25.0731C10.9327 25.5122 17.5 25.5122 17.5 25.5122C17.5 25.5122 24.0673 25.5122 25.7043 25.0731C26.6084 24.8311 27.3189 24.1207 27.5609 23.2166C28 21.5795 28 18.1619 28 18.1619C28 18.1619 27.9983 14.7443 27.5609 13.1072Z" fill="#B3B3B3"/>
<path d="M15.3979 21.312L20.8537 18.1624L15.3979 15.0127V21.312Z" fill="#252525"/>
</svg>
