<svg width="15" height="15" viewBox="0 0 15 15" fill="none" xmlns="http://www.w3.org/2000/svg">
<path fill-rule="evenodd" clip-rule="evenodd" d="M1.12784 7.49961C1.12784 3.98 3.98084 1.12686 7.50011 1.12686C11.0194 1.12686 13.8724 3.98 13.8724 7.49961C13.8724 11.0192 11.0194 13.8724 7.50011 13.8724C3.98084 13.8724 1.12784 11.0192 1.12784 7.49961ZM7.50011 -0.000976562C3.35788 -0.000976562 0 3.35719 0 7.49961C0 11.642 3.35788 15.0002 7.50011 15.0002C11.6423 15.0002 15.0002 11.642 15.0002 7.49961C15.0002 3.35719 11.6423 -0.000976562 7.50011 -0.000976562ZM6.93753 8.06307V2.56825C7.12233 2.54738 7.31021 2.53665 7.5006 2.53665C10.2413 2.53665 12.4631 4.75865 12.4631 7.49961C12.4631 7.69013 12.4523 7.87814 12.4314 8.06307H6.93753Z" fill="#666666"/>
</svg>
