<svg width="40" height="41" viewBox="0 0 40 41" fill="none" xmlns="http://www.w3.org/2000/svg">
<path fill-rule="evenodd" clip-rule="evenodd" d="M20.7929 21.7842C19.7569 22.7681 18.6569 23.6414 18.0817 23.7877C18.0566 23.6816 18.0291 23.5756 17.9985 23.4699C17.5888 21.7655 15.9383 19.7072 14.8644 18.8229C13.1023 17.1313 10.9992 15.7679 9.49268 15.0254C11.4404 15.3239 13.2829 16.0143 15.0386 17.0293C16.6136 17.9401 18.1201 19.1123 19.5694 20.4963C19.9599 20.9297 20.3682 21.359 20.7929 21.7842Z" fill="#1776CC"/>
<path fill-rule="evenodd" clip-rule="evenodd" d="M23.1995 18.9274C23.0404 19.4129 22.0716 20.545 20.9875 21.597C20.5751 21.1594 20.1573 20.7384 19.7357 20.3346C18.3952 18.8451 17.2686 17.3048 16.405 15.7027C15.4165 13.868 14.7728 11.9514 14.5474 9.93555C15.2414 11.4955 16.5993 13.755 18.3239 15.6364C19.743 17.1845 21.4109 18.4789 23.1657 18.9237C23.1771 18.9269 23.189 18.9278 23.1995 18.9274Z" fill="#208FD3"/>
<path fill-rule="evenodd" clip-rule="evenodd" d="M24.8367 7.00781C22.5854 10.088 21.3505 12.5139 18.2356 15.1899C16.4228 13.1293 15.0576 10.6947 14.5181 9.25177C16.1827 9.666 17.8721 9.65045 19.5606 9.27691C21.3309 8.88555 23.0989 8.10144 24.8367 7.00781Z" fill="#1776CC"/>
<path fill-rule="evenodd" clip-rule="evenodd" d="M32.6731 1.69337C35.1813 2.21778 37.6539 3.00326 39.9998 4.14901C35.0382 3.86189 29.0288 5.25179 25.1489 6.69107L25.1759 6.64077C25.714 5.6331 27.9804 1.38842 32.6731 1.69337Z" fill="#004693"/>
<path fill-rule="evenodd" clip-rule="evenodd" d="M15.5222 2.02636C16.0036 1.36067 16.7516 0.94736 17.6171 0.898439C21.9016 0.65795 26.7557 0.621831 31.5367 1.47314C27.4762 1.84074 25.4778 5.58249 24.9717 6.53119C24.9118 6.64183 24.8967 6.69532 24.8866 6.70173V6.70218C23.115 7.83971 21.3122 8.65307 19.5108 9.0513C17.8283 9.423 16.1454 9.43306 14.4889 9.00603L14.4766 9.00237C14.4418 7.99835 14.5141 6.41232 14.7321 4.936C14.9018 3.78339 15.1596 2.70119 15.5222 2.02636Z" fill="#1776CC"/>
<path fill-rule="evenodd" clip-rule="evenodd" d="M11.1777 7.48433C13.1058 6.44465 13.9219 5.59562 14.6763 3.90625C14.61 4.22721 14.5524 4.56234 14.5021 4.90295C14.2867 6.35778 14.2127 7.92233 14.2424 8.94143C13.4921 8.73981 12.9188 8.54092 12.4108 8.28763C11.9783 8.07275 11.591 7.81671 11.1777 7.48433Z" fill="#004693"/>
<path fill-rule="evenodd" clip-rule="evenodd" d="M6.9919 10.1629C6.66637 9.32255 6.1639 8.3231 5.52519 7.50425C5.16079 7.0379 3.75764 5.70424 3.83353 5.43723C4.14077 4.92379 6.02857 6.6031 6.59596 6.28535C7.65804 5.69189 9.52069 6.5583 10.6125 7.27565C10.6166 7.30079 10.6294 7.32457 10.65 7.34286C11.2279 7.84898 11.7276 8.20652 12.3078 8.49501C12.8464 8.76293 13.4526 8.9705 14.2527 9.18356V9.18447V9.18676V9.18767V9.18813V9.18905V9.18996L14.2537 9.19088V9.19179C14.3895 11.5226 15.0743 13.7208 16.2023 15.813C16.8213 16.962 17.5748 18.0789 18.4426 19.168C17.38 18.2673 16.2859 17.4818 15.1557 16.8285C13.1527 15.6704 11.0363 14.9288 8.78002 14.7016L8.72973 14.6805C8.40466 13.2321 7.81258 11.7521 6.9919 10.1629Z" fill="#50BCFF"/>
<path fill-rule="evenodd" clip-rule="evenodd" d="M3.1084 14.9547C5.0762 14.1839 6.08571 13.3102 7.2685 11.25C7.81668 12.4223 8.22634 13.5392 8.48054 14.6347C7.46692 14.5666 5.84659 14.5908 4.33828 14.7677C3.91491 14.818 3.49931 14.8793 3.1084 14.9547Z" fill="#004693"/>
<path fill-rule="evenodd" clip-rule="evenodd" d="M0.587892 32.2804C-0.241018 27.2598 -0.0613371 22.1574 0.323628 17.685C0.392666 16.8836 0.77306 16.1914 1.37154 15.7278C1.38297 15.7255 1.3944 15.7218 1.40492 15.7163C2.08752 15.3661 3.19121 15.1361 4.36577 14.999C5.87225 14.822 7.48893 14.7987 8.48837 14.8687C8.50163 14.886 8.51946 14.8998 8.54095 14.908C8.68451 15.5929 8.76635 16.2709 8.78236 16.9503C8.84225 19.4572 8.00511 21.9901 6.06154 24.977C6.05422 24.988 5.99936 25.0003 5.88323 25.0584C4.84812 25.5736 0.623097 27.6791 0.587892 32.2804Z" fill="#1776CC"/>
<path fill-rule="evenodd" clip-rule="evenodd" d="M5.92573 25.2959C4.35981 29.1282 2.76554 35.1491 2.90636 40.1564C2.00018 38.1506 1.35278 36.0621 0.90152 33.9448C0.945412 33.921 0.970101 33.8721 0.960957 33.8209C-0.0522068 28.3784 4.69906 25.9081 5.92573 25.2959Z" fill="#004693"/>
<path fill-rule="evenodd" clip-rule="evenodd" d="M14.5605 18.8523C12.0957 21.564 9.31221 22.9516 6.3125 25.0149C8.24281 22.0244 9.07401 19.475 9.01412 16.9435C8.99857 16.2814 8.9213 15.6212 8.78734 14.9551C10.2358 15.5677 12.5913 17.0006 14.5605 18.8523Z" fill="#208FD3"/>
</svg>
