<svg width="100" height="12" viewBox="0 0 100 12" fill="none" xmlns="http://www.w3.org/2000/svg">
<path d="M0.0744537 10.8622C0.0248507 10.7906 4.92603e-05 10.7052 4.92603e-05 10.606C0.0110775 10.4406 0.0441461 10.3414 0.0992552 10.3083C0.154364 10.2753 0.259076 10.2587 0.413391 10.2587C0.733049 10.2587 0.970035 10.2009 1.12435 10.0851C1.27866 9.96938 1.37511 9.82608 1.41368 9.65523C1.45226 9.48438 1.47706 9.26117 1.48809 8.98559L1.48809 2.42147C1.47706 2.14589 1.45226 1.92268 1.41368 1.75183C1.37511 1.58098 1.27866 1.43767 1.12435 1.32193C0.970035 1.20619 0.733049 1.14832 0.413391 1.14832H0.314185C0.203951 1.14832 0.126785 1.12903 0.0826878 1.09045C0.0385908 1.05188 0.0110284 0.955434 0 0.801119C0 0.701913 0.0248015 0.616481 0.0744044 0.544837C0.124007 0.473194 0.198412 0.437364 0.297618 0.437364C1.0141 0.470432 1.66444 0.486967 2.24865 0.486967C2.91002 0.486967 3.59896 0.470432 4.31544 0.437364C4.41465 0.437364 4.48905 0.473194 4.53865 0.544837C4.58826 0.616481 4.61306 0.701913 4.61306 0.801119C4.60203 0.966462 4.56896 1.06567 4.51385 1.09874C4.45874 1.13181 4.35403 1.14834 4.19972 1.14834C3.88006 1.14834 3.64307 1.20621 3.48876 1.32195C3.33444 1.43769 3.238 1.58099 3.19942 1.75184C3.16085 1.92269 3.13605 2.14591 3.12502 2.42148V5.34806L8.3168 5.34806L8.3168 2.42148C8.30577 2.14591 8.28097 1.92269 8.24239 1.75184C8.20382 1.58099 8.10737 1.43769 7.95306 1.32195C7.79874 1.20621 7.56176 1.14834 7.2421 1.14834H7.14289C7.03266 1.14834 6.95275 1.12904 6.90315 1.09047C6.85354 1.0519 6.82323 0.955451 6.81221 0.801136C6.81221 0.70193 6.83977 0.616498 6.89488 0.544854C6.94999 0.473211 7.02163 0.437381 7.10981 0.437381C7.82629 0.470449 8.51522 0.486984 9.1766 0.486984C9.78286 0.486984 10.4387 0.470449 11.1442 0.437381C11.2434 0.437381 11.3178 0.473211 11.3674 0.544854C11.417 0.616498 11.4418 0.70193 11.4418 0.801136C11.4308 0.966479 11.395 1.06569 11.3343 1.09875C11.2737 1.13182 11.1717 1.14836 11.0284 1.14836C10.7088 1.14836 10.469 1.20623 10.3092 1.32197C10.1493 1.43771 10.0501 1.58101 10.0116 1.75186C9.97299 1.92271 9.94819 2.14592 9.93716 2.4215L9.93716 8.98562C9.94819 9.2612 9.97299 9.48442 10.0116 9.65526C10.0501 9.82611 10.1493 9.96942 10.3092 10.0852C10.469 10.2009 10.7088 10.2588 11.0284 10.2588H11.1276C11.2268 10.2588 11.3012 10.2781 11.3508 10.3166C11.4004 10.3552 11.4308 10.4517 11.4418 10.606C11.4418 10.7052 11.417 10.7906 11.3674 10.8623C11.3178 10.9339 11.2434 10.9697 11.1442 10.9697C10.4387 10.9367 9.77732 10.9201 9.16005 10.9201C8.5097 10.9201 7.82629 10.9367 7.10981 10.9697C7.02163 10.9697 6.94999 10.9339 6.89488 10.8623C6.83977 10.7906 6.81221 10.7052 6.81221 10.606C6.82324 10.4406 6.85906 10.3414 6.9197 10.3084C6.98033 10.2753 7.0878 10.2588 7.24212 10.2588C7.56177 10.2588 7.79876 10.2009 7.95307 10.0851C8.10739 9.9694 8.20383 9.8261 8.24241 9.65525C8.28098 9.4844 8.30578 9.26119 8.31681 8.98561V6.05903L3.12504 6.05903V8.98561C3.13606 9.26119 3.16087 9.4844 3.19944 9.65525C3.23802 9.8261 3.33446 9.9694 3.48877 10.0851C3.64309 10.2009 3.88008 10.2588 4.19973 10.2588H4.29894C4.40917 10.2588 4.48634 10.278 4.53044 10.3166C4.57453 10.3552 4.6021 10.4516 4.61312 10.606C4.61312 10.7052 4.58832 10.7906 4.53872 10.8622C4.48912 10.9339 4.41471 10.9697 4.31551 10.9697C3.61004 10.9366 2.92662 10.9201 2.26525 10.9201C1.67002 10.9201 1.01415 10.9366 0.297667 10.9697C0.198461 10.9697 0.124057 10.9339 0.0744537 10.8622Z" fill="#005691"/>
<path d="M12.905 10.8623C12.8554 10.7906 12.8306 10.7052 12.8306 10.606C12.8416 10.4406 12.8774 10.3414 12.9381 10.3084C12.9987 10.2753 13.1007 10.2588 13.244 10.2588C13.5636 10.2588 13.8006 10.2009 13.9549 10.0851C14.1092 9.9694 14.2084 9.82886 14.2525 9.66352C14.2966 9.49817 14.3242 9.2722 14.3352 8.98561L14.3352 2.42148C14.3242 2.13489 14.2966 1.90892 14.2525 1.74357C14.2084 1.57823 14.1092 1.43769 13.9549 1.32195C13.8006 1.20621 13.5636 1.14834 13.244 1.14834H13.1448C13.0455 1.14834 12.9711 1.12904 12.9215 1.09047C12.8719 1.05189 12.8416 0.955449 12.8306 0.801134C12.8306 0.701928 12.8554 0.616495 12.905 0.544852C12.9546 0.473209 13.029 0.437379 13.1282 0.437379C13.8447 0.470448 14.5006 0.486982 15.0958 0.486982C15.7572 0.486982 16.4461 0.470448 17.1626 0.437379C17.2618 0.437379 17.3362 0.473208 17.3858 0.544852C17.4354 0.616495 17.4602 0.701928 17.4602 0.801134C17.4492 0.966477 17.4134 1.06568 17.3527 1.09875C17.2921 1.13182 17.1846 1.14835 17.0303 1.14835C16.7106 1.14835 16.4737 1.20623 16.3193 1.32197C16.165 1.43771 16.0686 1.58101 16.03 1.75186C15.9914 1.92271 15.9666 2.14592 15.9556 2.4215V8.98562C15.9666 9.2612 15.9914 9.48442 16.03 9.65526C16.0686 9.82611 16.165 9.96942 16.3193 10.0852C16.4737 10.2009 16.7106 10.2588 17.0303 10.2588H17.1295C17.2397 10.2588 17.3197 10.2781 17.3693 10.3166C17.4189 10.3552 17.4492 10.4517 17.4602 10.606C17.4602 10.7052 17.4354 10.7906 17.3858 10.8623C17.3362 10.9339 17.2618 10.9697 17.1626 10.9697C16.4571 10.9367 15.7737 10.9201 15.1123 10.9201C14.5061 10.9201 13.8447 10.9367 13.1282 10.9697C13.029 10.9697 12.9546 10.9339 12.905 10.8623H12.905Z" fill="#005691"/>
<path d="M21.4869 10.6475C20.7098 10.2451 20.0952 9.63344 19.6432 8.81223C19.1913 7.99102 18.9653 6.97967 18.9653 5.77817C18.9653 4.66486 19.2106 3.68383 19.7011 2.83507C20.1916 1.98632 20.8723 1.32771 21.7431 0.859239C22.6139 0.390772 23.6115 0.15653 24.7358 0.15653C25.287 0.15653 25.8326 0.239202 26.3727 0.404545C26.9129 0.569888 27.3593 0.828931 27.712 1.18166C28.0647 1.53438 28.2411 1.96978 28.2411 2.48785C28.2411 2.97285 28.0978 3.39172 27.8112 3.74444C27.5246 4.09717 27.1443 4.27354 26.6703 4.27354C26.4389 4.27354 26.2156 4.21843 26.0007 4.1082C25.7858 3.99797 25.6728 3.85466 25.6617 3.67829C25.6617 3.66726 25.7362 3.60663 25.885 3.4964C26.0338 3.38616 26.1716 3.23735 26.2983 3.04997C26.4251 2.86259 26.4885 2.63661 26.4885 2.37206C26.4885 1.9091 26.3066 1.53432 25.9428 1.24773C25.5791 0.961139 25.1106 0.817836 24.5374 0.817836C23.854 0.817836 23.2367 1.00798 22.6856 1.38827C22.1344 1.76856 21.6991 2.32522 21.3794 3.05824C21.0597 3.79125 20.8999 4.66481 20.8999 5.67891C20.8999 6.65994 21.057 7.5087 21.3711 8.22518C21.6853 8.94166 22.1262 9.49005 22.6939 9.87034C23.2615 10.2506 23.9202 10.4408 24.6697 10.4408C25.0224 10.4408 25.3311 10.4215 25.5956 10.3829C25.8602 10.3443 26.1468 10.2754 26.4554 10.1762V8.48973C26.4554 8.10393 26.4416 7.83388 26.4141 7.67956C26.3865 7.52525 26.2983 7.40951 26.1495 7.33234C26.0007 7.25518 25.7499 7.2166 25.3972 7.2166C25.276 7.2166 25.1878 7.19731 25.1327 7.15873C25.0776 7.12016 25.0445 7.02371 25.0335 6.8694C25.0335 6.77019 25.0638 6.68476 25.1244 6.61312C25.185 6.54147 25.2705 6.50564 25.3807 6.50564C26.0752 6.53871 26.6814 6.55525 27.1995 6.55525C27.6955 6.55525 28.2908 6.53871 28.9852 6.50564C29.0844 6.50564 29.1616 6.54147 29.2167 6.61312C29.2718 6.68476 29.2993 6.77019 29.2993 6.8694C29.2883 7.02371 29.2553 7.12016 29.2001 7.15873C29.145 7.19731 29.0569 7.2166 28.9356 7.2166C28.6049 7.2166 28.3679 7.2607 28.2246 7.34888C28.0813 7.43705 27.9932 7.56106 27.9601 7.7209C27.927 7.88074 27.9105 8.13702 27.9105 8.48974V10.4408C27.2601 10.7494 26.6649 10.9616 26.1248 11.0774C25.5846 11.1931 24.9067 11.251 24.0911 11.251C23.1321 11.251 22.264 11.0498 21.4869 10.6475Z" fill="#005691"/>
<path d="M30.3821 10.8622C30.3325 10.7906 30.3077 10.7052 30.3077 10.606C30.3187 10.4406 30.3518 10.3414 30.4069 10.3083C30.462 10.2753 30.5667 10.2587 30.721 10.2587C31.0407 10.2587 31.2777 10.2009 31.432 10.0851C31.5863 9.96938 31.6827 9.82608 31.7213 9.65523C31.7599 9.48438 31.7847 9.26117 31.7957 8.98559V2.42147C31.7847 2.14589 31.7599 1.92268 31.7213 1.75183C31.6827 1.58098 31.5863 1.43767 31.432 1.32193C31.2777 1.20619 31.0407 1.14832 30.721 1.14832H30.6218C30.5116 1.14832 30.4344 1.12903 30.3903 1.09045C30.3462 1.05188 30.3186 0.955434 30.3076 0.801119C30.3076 0.701913 30.3324 0.616481 30.382 0.544837C30.4316 0.473194 30.506 0.437364 30.6052 0.437364C31.3217 0.470432 31.9721 0.486967 32.5563 0.486967C33.2176 0.486967 33.9066 0.470432 34.6231 0.437364C34.7223 0.437364 34.7967 0.473194 34.8463 0.544837C34.8959 0.616481 34.9207 0.701913 34.9207 0.801119C34.9096 0.966462 34.8766 1.06567 34.8215 1.09874C34.7664 1.13181 34.6616 1.14834 34.5073 1.14834C34.1877 1.14834 33.9507 1.20621 33.7964 1.32195C33.6421 1.43769 33.5456 1.58099 33.507 1.75184C33.4685 1.92269 33.4437 2.14591 33.4326 2.42148V5.34806L38.6244 5.34806V2.42148C38.6134 2.14591 38.5886 1.92269 38.55 1.75184C38.5114 1.58099 38.415 1.43769 38.2607 1.32195C38.1064 1.20621 37.8694 1.14834 37.5497 1.14834H37.4505C37.3403 1.14834 37.2604 1.12904 37.2108 1.09047C37.1612 1.0519 37.1309 0.955451 37.1198 0.801136C37.1198 0.70193 37.1474 0.616498 37.2025 0.544854C37.2576 0.473211 37.3292 0.437381 37.4174 0.437381C38.1339 0.470449 38.8228 0.486984 39.4842 0.486984C40.0905 0.486984 40.7463 0.470449 41.4518 0.437381C41.551 0.437381 41.6254 0.473211 41.675 0.544854C41.7246 0.616498 41.7494 0.70193 41.7494 0.801136C41.7384 0.966479 41.7026 1.06569 41.6419 1.09875C41.5813 1.13182 41.4793 1.14836 41.336 1.14836C41.0164 1.14836 40.7766 1.20623 40.6168 1.32197C40.457 1.43771 40.3578 1.58101 40.3192 1.75186C40.2806 1.92271 40.2558 2.14592 40.2448 2.4215V8.98562C40.2558 9.2612 40.2806 9.48442 40.3192 9.65526C40.3578 9.82611 40.457 9.96942 40.6168 10.0852C40.7766 10.2009 41.0164 10.2588 41.336 10.2588H41.4352C41.5345 10.2588 41.6089 10.2781 41.6585 10.3166C41.7081 10.3552 41.7384 10.4517 41.7494 10.606C41.7494 10.7052 41.7246 10.7906 41.675 10.8623C41.6254 10.9339 41.551 10.9697 41.4518 10.9697C40.7463 10.9367 40.0849 10.9201 39.4677 10.9201C38.8173 10.9201 38.1339 10.9367 37.4174 10.9697C37.3292 10.9697 37.2576 10.9339 37.2025 10.8623C37.1474 10.7906 37.1198 10.7052 37.1198 10.606C37.1309 10.4406 37.1667 10.3414 37.2273 10.3084C37.2879 10.2753 37.3954 10.2588 37.5497 10.2588C37.8694 10.2588 38.1064 10.2009 38.2607 10.0851C38.415 9.9694 38.5115 9.8261 38.55 9.65525C38.5886 9.4844 38.6134 9.26119 38.6244 8.98561V6.05903L33.4327 6.05903V8.98561C33.4437 9.26119 33.4685 9.4844 33.5071 9.65525C33.5456 9.8261 33.6421 9.9694 33.7964 10.0851C33.9507 10.2009 34.1877 10.2588 34.5074 10.2588H34.6066C34.7168 10.2588 34.794 10.278 34.8381 10.3166C34.8822 10.3552 34.9097 10.4516 34.9207 10.606C34.9207 10.7052 34.8959 10.7906 34.8463 10.8622C34.7967 10.9339 34.7223 10.9697 34.6231 10.9697C33.9177 10.9366 33.2342 10.9201 32.5729 10.9201C31.9776 10.9201 31.3218 10.9366 30.6053 10.9697C30.5061 10.9697 30.4317 10.9339 30.3821 10.8622Z" fill="#005691"/>
<path d="M43.2292 10.8623C43.1796 10.7906 43.1548 10.7052 43.1548 10.606C43.1659 10.4406 43.1989 10.3414 43.254 10.3084C43.3091 10.2753 43.4139 10.2588 43.5682 10.2588C43.8878 10.2588 44.1248 10.2009 44.2791 10.0851C44.4335 9.9694 44.5299 9.8261 44.5685 9.65525C44.607 9.4844 44.6318 9.26119 44.6429 8.98561V2.42148C44.6318 2.1459 44.607 1.92269 44.5685 1.75184C44.5299 1.58099 44.4334 1.43769 44.2791 1.32195C44.1248 1.20621 43.8878 1.14834 43.5682 1.14834H43.469C43.3587 1.14834 43.2816 1.12904 43.2375 1.09047C43.1934 1.05189 43.1658 0.955449 43.1548 0.801134C43.1548 0.701928 43.1796 0.616495 43.2292 0.544852C43.2788 0.473209 43.3477 0.437379 43.4359 0.437379C44.1524 0.470448 44.8082 0.486982 45.4035 0.486982H50.1819C50.4685 0.486982 50.6118 0.619257 50.6118 0.883806L50.6614 3.19861C50.6614 3.29782 50.6118 3.37773 50.5126 3.43836C50.4134 3.49899 50.3141 3.5293 50.2149 3.5293C50.0827 3.5293 49.9642 3.5045 49.8595 3.45489C49.7547 3.40529 49.6969 3.33089 49.6858 3.23168C49.6087 2.69155 49.5177 2.28096 49.413 1.99987C49.3083 1.71879 49.154 1.50935 48.9501 1.37157C48.7462 1.23379 48.4568 1.15938 48.082 1.14835H46.2798V5.44728L49.2394 5.44728C49.3276 5.45831 49.3937 5.49964 49.4378 5.57129C49.4819 5.64293 49.504 5.72836 49.504 5.82757C49.504 5.91575 49.4819 5.99291 49.4378 6.05905C49.3937 6.12519 49.3276 6.15826 49.2394 6.15826L46.2798 6.15826V8.98562C46.2908 9.2612 46.3156 9.48442 46.3542 9.65526C46.3928 9.82611 46.4892 9.96942 46.6435 10.0852C46.7978 10.2009 47.0348 10.2588 47.3545 10.2588H47.4537C47.5529 10.2588 47.6273 10.2781 47.6769 10.3166C47.7265 10.3552 47.7568 10.4517 47.7678 10.606C47.7678 10.7052 47.743 10.7906 47.6934 10.8623C47.6438 10.9339 47.5694 10.9697 47.4702 10.9697C46.7648 10.9367 46.0813 10.9201 45.42 10.9201C44.8137 10.9201 44.1523 10.9367 43.4359 10.9697C43.3477 10.9697 43.2788 10.9339 43.2292 10.8623H43.2292Z" fill="#005691"/>
<path d="M51.9098 10.8623C51.8602 10.7906 51.8355 10.7052 51.8355 10.606C51.8465 10.4406 51.8796 10.3414 51.9347 10.3083C51.9898 10.2753 52.0945 10.2587 52.2488 10.2587C52.5685 10.2587 52.8055 10.2009 52.9598 10.0851C53.1141 9.96938 53.2106 9.82608 53.2491 9.65523C53.2877 9.48438 53.3125 9.26117 53.3235 8.98559V2.42147C53.3125 2.14589 53.2877 1.92268 53.2491 1.75183C53.2106 1.58098 53.1141 1.43767 52.9598 1.32193C52.8055 1.20619 52.5685 1.14832 52.2488 1.14832H52.1496C52.0394 1.14832 51.9622 1.12903 51.9181 1.09045C51.874 1.05188 51.8465 0.955434 51.8354 0.80112C51.8354 0.701914 51.8603 0.616481 51.9099 0.544837C51.9595 0.473194 52.0284 0.437364 52.1165 0.437364C52.844 0.470432 53.4999 0.486966 54.0841 0.486966C54.7455 0.486966 55.4344 0.470432 56.1509 0.437364C56.2501 0.437364 56.3245 0.473194 56.3741 0.544837C56.4237 0.616481 56.4485 0.701914 56.4485 0.80112C56.4375 0.966463 56.4017 1.06567 56.341 1.09874C56.2804 1.13181 56.1784 1.14834 56.0351 1.14834C55.7155 1.14834 55.4785 1.20621 55.3242 1.32195C55.1699 1.43769 55.0734 1.58099 55.0348 1.75184C54.9963 1.92269 54.9715 2.1459 54.9604 2.42148V9.23362C54.9825 9.4651 55.01 9.64422 55.0431 9.77099C55.0762 9.89776 55.1754 10.0135 55.3407 10.1182C55.5061 10.2229 55.7651 10.2698 56.1178 10.2587H57.6059C57.9917 10.2477 58.2838 10.1843 58.4822 10.0686C58.6807 9.95285 58.8377 9.77373 58.9535 9.53122C59.0692 9.28872 59.2098 8.89189 59.3751 8.34075C59.4523 8.14234 59.6396 8.06518 59.9373 8.10927C60.0365 8.13131 60.1302 8.17541 60.2183 8.24155C60.3065 8.30768 60.3451 8.39036 60.3341 8.48956L60.0034 10.5729C59.9703 10.7162 59.9207 10.8099 59.8546 10.854C59.7884 10.8981 59.6782 10.9201 59.5239 10.9201L54.1006 10.9201C53.5054 10.9201 52.844 10.9367 52.1165 10.9697C52.0283 10.9697 51.9594 10.9339 51.9098 10.8623Z" fill="#005691"/>
<path d="M63.4839 10.8623C63.4343 10.7906 63.4096 10.7052 63.4096 10.606C63.4206 10.4407 63.4565 10.3415 63.5171 10.3084C63.5777 10.2753 63.6797 10.2588 63.823 10.2588C64.1427 10.2588 64.3796 10.2009 64.534 10.0852C64.6883 9.96945 64.7847 9.82615 64.8233 9.6553C64.8619 9.48445 64.8867 9.26124 64.8977 8.98566V6.91887C64.8977 6.7425 64.6249 6.10042 64.0792 4.99262C63.5336 3.88482 63.0899 3.02227 62.7482 2.405C62.5278 2.00817 62.2853 1.71332 62.0207 1.52041C61.7562 1.32751 61.431 1.19247 61.0452 1.1153C61.0011 1.10428 60.935 1.0905 60.8468 1.07397C60.7586 1.05743 60.7007 1.02437 60.6732 0.974763C60.6456 0.925159 60.6318 0.845249 60.6318 0.735015C60.6318 0.60274 60.6677 0.514563 60.7393 0.470466C60.811 0.426369 60.9239 0.404328 61.0782 0.404328C61.9601 0.404328 62.649 0.52283 63.145 0.759816C63.6411 0.996803 64.082 1.4515 64.4678 2.1239L65.2449 3.69466C65.7299 4.66468 66.0496 5.29298 66.2039 5.57957H66.2535L68.0888 1.95856C68.188 1.7381 68.2376 1.57827 68.2376 1.47906C68.2376 1.34678 68.1687 1.25861 68.0309 1.21451C67.8931 1.17041 67.6699 1.14837 67.3613 1.14837H67.2621C67.1518 1.14837 67.0747 1.12908 67.0306 1.0905C66.9865 1.05193 66.9589 0.955484 66.9479 0.801169C66.9479 0.701963 66.9727 0.61653 67.0223 0.544888C67.0719 0.473245 67.1408 0.437414 67.229 0.437414C67.9454 0.470483 68.5462 0.487018 69.0312 0.487018C69.439 0.487018 69.9957 0.470483 70.7012 0.437414C70.8004 0.437414 70.8748 0.473245 70.9244 0.544888C70.974 0.616531 70.9988 0.701963 70.9988 0.801169C70.9878 0.955484 70.9602 1.05193 70.9161 1.0905C70.872 1.12908 70.7948 1.14837 70.6846 1.14837C70.2327 1.14837 69.8689 1.23381 69.5933 1.40466C69.3178 1.5755 69.0697 1.86485 68.8493 2.27271L66.9809 5.79452L66.7825 6.19961C66.6833 6.40353 66.6172 6.59091 66.5841 6.76176C66.551 6.93261 66.5345 7.13929 66.5345 7.3818V8.98562C66.5455 9.2612 66.5703 9.48442 66.6089 9.65526C66.6475 9.82611 66.7439 9.96942 66.8982 10.0852C67.0525 10.2009 67.2895 10.2588 67.6092 10.2588H67.7084C67.8186 10.2588 67.8958 10.2781 67.9399 10.3166C67.984 10.3552 68.0115 10.4517 68.0226 10.606C68.0226 10.7052 67.9978 10.7906 67.9482 10.8623C67.8986 10.9339 67.8297 10.9697 67.7415 10.9697C67.036 10.9367 66.3747 10.9201 65.7574 10.9201C65.107 10.9201 64.4236 10.9367 63.7071 10.9697C63.6079 10.9697 63.5335 10.9339 63.4839 10.8623L63.4839 10.8623Z" fill="#005691"/>
<path d="M71.6189 10.8623C71.5693 10.7906 71.5445 10.7051 71.5445 10.6059C71.5555 10.4406 71.5886 10.3414 71.6437 10.3083C71.6988 10.2753 71.8035 10.2587 71.9578 10.2587C72.2775 10.2587 72.5145 10.2008 72.6688 10.0851C72.8231 9.96937 72.9195 9.82606 72.9581 9.65522C72.9967 9.48437 73.0215 9.26115 73.0325 8.98558V2.42145C73.0215 2.14587 72.9967 1.92266 72.9581 1.75181C72.9195 1.58096 72.8231 1.43766 72.6688 1.32192C72.5145 1.20618 72.2775 1.14831 71.9578 1.14831H71.8586C71.7484 1.14831 71.6712 1.12901 71.6271 1.09044C71.583 1.05186 71.5555 0.955419 71.5444 0.801105C71.5444 0.701899 71.5692 0.616466 71.6188 0.544822C71.6684 0.473179 71.7373 0.437349 71.8255 0.437349C72.553 0.470418 73.2089 0.486952 73.7931 0.486952L78.9849 0.486952C79.2715 0.486952 79.4148 0.619226 79.4148 0.883776L79.4644 3.19858C79.4644 3.29779 79.4148 3.3777 79.3156 3.43833C79.2164 3.49896 79.1172 3.52927 79.0179 3.52927C78.8857 3.52927 78.7699 3.50446 78.6707 3.45486C78.5715 3.40526 78.5164 3.33085 78.5054 3.23165C78.4172 2.69152 78.3208 2.28093 78.216 1.99984C78.1113 1.71876 77.957 1.50932 77.7531 1.37154C77.5492 1.23376 77.2598 1.15935 76.8851 1.14832H74.6695V5.34804L77.6622 5.34804C77.7393 5.35907 77.8 5.40041 77.8441 5.47205C77.8882 5.54369 77.9102 5.62912 77.9102 5.72833C77.9102 5.81651 77.8882 5.89367 77.8441 5.95981C77.8 6.02595 77.7393 6.05902 77.6622 6.05902L74.6695 6.05902V9.184C74.6915 9.41548 74.7191 9.60012 74.7521 9.7379C74.7852 9.87568 74.8844 9.99969 75.0497 10.1099C75.2151 10.2202 75.4741 10.2698 75.8269 10.2587H77.348C77.7338 10.2477 78.0259 10.1843 78.2243 10.0686C78.4227 9.95285 78.5798 9.77373 78.6956 9.53122C78.8113 9.28872 78.9518 8.89189 79.1172 8.34075C79.1944 8.14234 79.3817 8.06518 79.6794 8.10927C79.7896 8.13131 79.886 8.17541 79.9687 8.24155C80.0514 8.30768 80.0872 8.39036 80.0762 8.48956L79.7455 10.5729C79.7124 10.7162 79.6628 10.8099 79.5967 10.854C79.5305 10.8981 79.4203 10.9201 79.266 10.9201L73.8097 10.9201C73.2144 10.9201 72.5531 10.9367 71.8256 10.9697C71.7374 10.9697 71.6685 10.9339 71.6189 10.8623Z" fill="#005691"/>
<path d="M81.4401 10.8623C81.3905 10.7906 81.3658 10.7052 81.3658 10.606C81.3768 10.4406 81.4099 10.3414 81.465 10.3083C81.5201 10.2753 81.6248 10.2587 81.7791 10.2587C82.0988 10.2587 82.3358 10.2009 82.4901 10.0851C82.6444 9.96938 82.7408 9.82608 82.7794 9.65523C82.818 9.48438 82.8428 9.26117 82.8538 8.98559V2.438C82.8428 2.15141 82.818 1.92544 82.7794 1.76009C82.7408 1.59475 82.6444 1.45145 82.4901 1.3302C82.3358 1.20895 82.0988 1.14832 81.7791 1.14832H81.6799C81.5697 1.14832 81.4925 1.12903 81.4484 1.09045C81.4043 1.05188 81.3768 0.955434 81.3657 0.801119C81.3657 0.701913 81.3905 0.616481 81.4401 0.544837C81.4897 0.473194 81.5641 0.437364 81.6633 0.437364C82.3798 0.470432 83.0357 0.486967 83.6309 0.486967H86.4748C87.3236 0.497995 88.0318 0.633031 88.5995 0.892074C89.1671 1.15112 89.5833 1.4818 89.8478 1.88413C90.1124 2.28646 90.2446 2.71912 90.2446 3.18208C90.2446 3.78834 90.0049 4.345 89.5254 4.85206C89.0459 5.35912 88.3928 5.72287 87.5661 5.94333L87.8472 6.38975C88.3101 7.1393 88.729 7.78138 89.1038 8.31598C89.4786 8.85059 89.8864 9.34938 90.3273 9.81234C90.636 10.0659 90.9667 10.2147 91.3194 10.2588C91.3414 10.2588 91.391 10.2615 91.4682 10.267C91.5454 10.2725 91.6087 10.3028 91.6583 10.358C91.7079 10.4131 91.7327 10.4957 91.7327 10.606C91.7327 10.7052 91.7079 10.7906 91.6583 10.8623C91.6087 10.9339 91.5343 10.9697 91.4351 10.9697L91.0052 10.9532C90.5202 10.9312 90.1675 10.9201 89.9471 10.9201C89.5061 10.8319 89.1286 10.6749 88.8145 10.4489C88.5003 10.2229 88.1889 9.9005 87.8803 9.48164C87.5606 9.06277 87.1142 8.37936 86.541 7.4314L86.2434 6.9519C86.078 6.69838 85.9182 6.52477 85.7639 6.43107C85.6096 6.33737 85.345 6.29053 84.9702 6.29053H84.4907V8.98562C84.5018 9.2612 84.5266 9.48442 84.5651 9.65526C84.6037 9.82611 84.7002 9.96942 84.8545 10.0852C85.0088 10.2009 85.2458 10.2588 85.5654 10.2588H85.6646C85.7638 10.2588 85.8382 10.2781 85.8878 10.3166C85.9374 10.3552 85.9678 10.4517 85.9788 10.606C85.9788 10.7052 85.954 10.7906 85.9044 10.8623C85.8548 10.9339 85.7804 10.9697 85.6812 10.9697C84.9757 10.9367 84.2868 10.9201 83.6144 10.9201C83.0302 10.9201 82.3798 10.9367 81.6633 10.9697C81.5641 10.9697 81.4897 10.9339 81.4401 10.8623L81.4401 10.8623ZM85.9458 5.64566C87.5882 5.64566 88.4094 4.87407 88.4094 3.33087C88.4094 2.70257 88.1944 2.17347 87.7646 1.74358C87.3347 1.31368 86.6292 1.09874 85.6482 1.09874C85.3285 1.09874 85.086 1.13731 84.9207 1.21448C84.7553 1.29164 84.6423 1.42392 84.5817 1.6113C84.5211 1.79868 84.4908 2.08527 84.4908 2.47107V5.64566L85.9458 5.64566Z" fill="#005691"/>
<path d="M93.4773 10.6475C92.8655 10.2451 92.5596 9.65269 92.5596 8.87007C92.5596 8.47324 92.6946 8.14532 92.9647 7.88628C93.2347 7.62723 93.5847 7.49772 94.0146 7.49772C94.2681 7.50875 94.461 7.57212 94.5933 7.68786C94.7256 7.8036 94.7917 7.91108 94.7917 8.01028C94.7917 8.02131 94.7366 8.05989 94.6264 8.12602C94.5161 8.19216 94.4169 8.29137 94.3287 8.42364C94.2406 8.55592 94.1965 8.73779 94.1965 8.96927C94.1965 9.48734 94.3535 9.88693 94.6677 10.168C94.9818 10.4491 95.4696 10.5896 96.131 10.5896C96.5829 10.5896 96.9797 10.5015 97.3215 10.3251C97.6632 10.1487 97.925 9.91447 98.1068 9.62236C98.2887 9.33025 98.3797 9.02437 98.3797 8.70471C98.3797 8.30788 98.2667 7.96617 98.0407 7.67958C97.8147 7.39299 97.5364 7.15324 97.2057 6.96034C96.875 6.76743 96.4231 6.54422 95.8499 6.2907C95.1885 5.99308 94.6539 5.72302 94.2461 5.48052C93.8382 5.23801 93.491 4.91559 93.2044 4.51326C92.9178 4.11093 92.7745 3.61214 92.7745 3.0169C92.7745 2.05791 93.1024 1.34143 93.7583 0.867439C94.4142 0.39345 95.2767 0.156464 96.3459 0.156464C97.1837 0.156464 97.914 0.332835 98.5368 0.685561C99.1596 1.03829 99.4709 1.55636 99.4709 2.23977C99.4709 2.6366 99.3359 2.96452 99.0659 3.22356C98.7958 3.48261 98.4458 3.61212 98.0159 3.61212C97.7624 3.60109 97.5695 3.53772 97.4372 3.42198C97.305 3.30624 97.2388 3.19876 97.2388 3.09956C97.2388 3.08853 97.3132 3.04995 97.462 2.98382C97.6108 2.91768 97.7431 2.81847 97.8589 2.6862C97.9746 2.55392 98.0325 2.37205 98.0325 2.14057C98.0325 1.73271 97.8754 1.41306 97.5612 1.18157C97.2471 0.950094 96.8475 0.834354 96.3625 0.834354C95.6901 0.834354 95.1803 0.99143 94.8331 1.30558C94.4859 1.61973 94.3122 2.00829 94.3122 2.47125C94.3122 2.85705 94.417 3.17947 94.6264 3.43851C94.8358 3.69755 95.172 3.95384 95.635 4.20736C96.0098 4.40577 96.4176 4.60418 96.8585 4.80259C97.564 5.12225 98.1234 5.41436 98.5368 5.67891C98.9501 5.94346 99.2974 6.29068 99.5784 6.72057C99.8595 7.15047 100 7.68507 100 8.3244C100 8.87554 99.8265 9.37433 99.4792 9.82076C99.132 10.2672 98.6635 10.6172 98.0738 10.8707C97.4841 11.1242 96.8365 11.251 96.131 11.251C94.9736 11.251 94.089 11.0498 93.4773 10.6475Z" fill="#005691"/>
</svg>
