<svg width="27" height="26" viewBox="0 0 27 26" fill="none" xmlns="http://www.w3.org/2000/svg">
<path fill-rule="evenodd" clip-rule="evenodd" d="M0.96582 13.0003C0.96582 6.07879 6.57684 0.467773 13.4984 0.467773C20.4198 0.467773 26.0309 6.07879 26.0309 13.0003C26.0309 19.9218 20.4198 25.5328 13.4984 25.5328C6.57683 25.5328 0.96582 19.9218 0.96582 13.0003ZM13.4984 2.46777C7.6814 2.46777 2.96582 7.18336 2.96582 13.0003C2.96582 15.6599 3.9516 18.0893 5.57771 19.943C7.3587 17.5011 10.2432 15.9121 13.4999 15.9121C16.7558 15.9121 19.6396 17.5003 21.4207 19.941C23.0458 18.0875 24.0309 15.659 24.0309 13.0003C24.0309 7.18336 19.3153 2.46777 13.4984 2.46777ZM19.9505 21.3258C18.5456 19.2636 16.18 17.9121 13.4999 17.9121C10.8191 17.9121 8.453 19.2643 7.0483 21.3274C8.83044 22.7099 11.0683 23.5328 13.4984 23.5328C15.9293 23.5328 18.168 22.7092 19.9505 21.3258ZM8.83398 11.055C8.83398 8.47787 10.9232 6.38867 13.5003 6.38867C16.0775 6.38867 18.1667 8.47787 18.1667 11.055C18.1667 13.6322 16.0775 15.7214 13.5003 15.7214C10.9232 15.7214 8.83398 13.6322 8.83398 11.055ZM13.5003 8.38867C12.0277 8.38867 10.834 9.58244 10.834 11.055C10.834 12.5276 12.0277 13.7214 13.5003 13.7214C14.9729 13.7214 16.1667 12.5276 16.1667 11.055C16.1667 9.58244 14.9729 8.38867 13.5003 8.38867Z" fill="#0066FF"/>
</svg>
