<svg width="15" height="18" viewBox="0 0 15 18" fill="none" xmlns="http://www.w3.org/2000/svg">
<g clip-path="url(#clip0_2307_6689)">
<path d="M1 7.16663C0.999218 6.17743 1.22715 5.20145 1.66598 4.31493C2.10481 3.4284 2.74267 2.65534 3.52972 2.05612C4.31677 1.45691 5.2317 1.04778 6.20304 0.860688C7.17438 0.673596 8.17583 0.713611 9.12914 0.977606C10.0825 1.2416 10.9618 1.72243 11.6986 2.38252C12.4353 3.04262 13.0094 3.86411 13.3761 4.78283C13.7428 5.70154 13.8922 6.69259 13.8125 7.67857C13.7328 8.66455 13.4262 9.61875 12.9167 10.4666C12.3955 11.1615 11.7782 11.7788 11.0833 12.3C10.2709 13.0652 9.64389 14.0057 9.25 15.05C8.96554 15.5875 8.56574 16.0555 8.07922 16.4205C7.59271 16.7854 7.03151 17.0382 6.43583 17.1609C5.84014 17.2835 5.22471 17.2729 4.6336 17.1298C4.04249 16.9868 3.49034 16.7148 3.01667 16.3333" stroke="#E64F30" stroke-width="1.375" stroke-linecap="round" stroke-linejoin="round"/>
<path d="M4.66621 7.16668C4.66071 6.70661 4.77073 6.25252 4.98619 5.84599C5.20165 5.43946 5.51566 5.09348 5.89948 4.83975C6.28329 4.58602 6.72463 4.43265 7.18307 4.39367C7.64152 4.3547 8.10241 4.43137 8.52355 4.61667C8.94468 4.80197 9.31259 5.08997 9.59359 5.4543C9.87458 5.81863 10.0597 6.24763 10.1319 6.70202C10.2041 7.15641 10.1612 7.62167 10.0071 8.05517C9.85291 8.48868 9.59245 8.87658 9.24955 9.18334" stroke="#E64F30" stroke-width="1.375" stroke-linecap="round" stroke-linejoin="round"/>
</g>
<defs>
<clipPath id="clip0_2307_6689">
<rect width="15" height="18" fill="white"/>
</clipPath>
</defs>
</svg>
