<svg width="26" height="25" viewBox="0 0 26 25" fill="none" xmlns="http://www.w3.org/2000/svg">
<g clip-path="url(#clip0_2588_591)">
<path d="M13.0002 16.8214C15.5492 16.8214 17.6155 14.7682 17.6155 12.2354C17.6155 9.70263 15.5492 7.64941 13.0002 7.64941C10.4511 7.64941 8.38477 9.70263 8.38477 12.2354C8.38477 14.7682 10.4511 16.8214 13.0002 16.8214Z" stroke="#0066FF" stroke-width="1.5" stroke-linecap="round" stroke-linejoin="round"/>
<path d="M19.1272 21.4072C17.0712 22.7636 14.6181 23.3989 12.1573 23.2123C9.69655 23.0257 7.36895 22.0278 5.54389 20.3771C3.71882 18.7264 2.50081 16.5174 2.08314 14.1005C1.66547 11.6837 2.07205 9.19745 3.23837 7.03634C4.40469 4.87523 6.26395 3.16304 8.52112 2.17144C10.7783 1.17983 13.3041 0.965623 15.6977 1.56279C18.0914 2.15996 20.2158 3.53431 21.7338 5.46776C23.2519 7.40121 24.0766 9.78301 24.0772 12.2352C24.0772 14.769 23.1541 16.8212 20.8464 16.8212C18.5387 16.8212 17.6157 14.769 17.6157 12.2352V7.64925" stroke="#0066FF" stroke-width="1.5" stroke-linecap="round" stroke-linejoin="round"/>
</g>
<defs>
<clipPath id="clip0_2588_591">
<rect width="26" height="24" fill="white" transform="translate(0 0.311523)"/>
</clipPath>
</defs>
</svg>
