<svg width="26" height="23" viewBox="0 0 26 23" fill="none" xmlns="http://www.w3.org/2000/svg">
<path fill-rule="evenodd" clip-rule="evenodd" d="M9.68667 6.3244C9.68667 4.58057 11.4206 3.13442 13.2433 3.13442C15.0661 3.13442 16.8 4.58057 16.8 6.3244C16.8 7.93568 15.9827 8.69211 14.8838 9.66669L14.8384 9.70695C13.749 10.6726 12.4 11.8683 12.4 14.2444C12.4 14.7102 12.7776 15.0877 13.2433 15.0877C13.7091 15.0877 14.0867 14.7102 14.0867 14.2444C14.0867 12.6533 14.8998 11.9069 16.0029 10.9286L16.0334 10.9015C17.1293 9.92988 18.4867 8.72642 18.4867 6.3244C18.4867 3.43148 15.764 1.44775 13.2433 1.44775C10.7227 1.44775 8 3.43148 8 6.3244C8 6.79016 8.37757 7.16774 8.84333 7.16774C9.30909 7.16774 9.68667 6.79016 9.68667 6.3244ZM13.2433 19.9022C13.9521 19.9022 14.5267 19.3276 14.5267 18.6189C14.5267 17.9101 13.9521 17.3355 13.2433 17.3355C12.5346 17.3355 11.96 17.9101 11.96 18.6189C11.96 19.3276 12.5346 19.9022 13.2433 19.9022Z" fill="#0066FF"/>
</svg>
