<svg width="25" height="26" viewBox="0 0 25 26" fill="none" xmlns="http://www.w3.org/2000/svg">
<path fill-rule="evenodd" clip-rule="evenodd" d="M6.11972 1.51758C3.25173 1.51758 0.926758 3.84255 0.926758 6.71054C0.926758 9.57855 3.25173 11.9035 6.11972 11.9035C8.98773 11.9035 11.3127 9.57855 11.3127 6.71054C11.3127 3.84255 8.98773 1.51758 6.11972 1.51758ZM2.92676 6.71054C2.92676 4.94712 4.3563 3.51758 6.11972 3.51758C7.88316 3.51758 9.31269 4.94711 9.31269 6.71054C9.31269 8.47398 7.88316 9.90351 6.11972 9.90351C4.35629 9.90351 2.92676 8.47398 2.92676 6.71054ZM18.6988 1.51758C15.8308 1.51758 13.5059 3.84255 13.5059 6.71054C13.5059 9.57855 15.8308 11.9035 18.6988 11.9035C21.5668 11.9035 23.8918 9.57855 23.8918 6.71054C23.8918 3.84255 21.5668 1.51758 18.6988 1.51758ZM15.5059 6.71054C15.5059 4.94712 16.9354 3.51758 18.6988 3.51758C20.4623 3.51758 21.8918 4.94711 21.8918 6.71054C21.8918 8.47398 20.4623 9.90351 18.6988 9.90351C16.9354 9.90351 15.5059 8.47398 15.5059 6.71054ZM0.926758 19.2896C0.926758 16.4216 3.25173 14.0967 6.11972 14.0967C8.98773 14.0967 11.3127 16.4216 11.3127 19.2896C11.3127 22.1576 8.98773 24.4826 6.11972 24.4826C3.25173 24.4826 0.926758 22.1576 0.926758 19.2896ZM6.11972 16.0967C4.3563 16.0967 2.92676 17.5262 2.92676 19.2896C2.92676 21.0531 4.35629 22.4826 6.11972 22.4826C7.88316 22.4826 9.31269 21.0531 9.31269 19.2896C9.31269 17.5262 7.88316 16.0967 6.11972 16.0967ZM18.6988 14.0967C15.8308 14.0967 13.5059 16.4216 13.5059 19.2896C13.5059 22.1576 15.8308 24.4826 18.6988 24.4826C21.5668 24.4826 23.8918 22.1576 23.8918 19.2896C23.8918 16.4216 21.5668 14.0967 18.6988 14.0967ZM15.5059 19.2896C15.5059 17.5262 16.9354 16.0967 18.6988 16.0967C20.4623 16.0967 21.8918 17.5262 21.8918 19.2896C21.8918 21.0531 20.4623 22.4826 18.6988 22.4826C16.9354 22.4826 15.5059 21.0531 15.5059 19.2896Z" fill="#0066FF"/>
</svg>
