<svg width="11" height="15" viewBox="0 0 11 15" fill="none" xmlns="http://www.w3.org/2000/svg">
<path fill-rule="evenodd" clip-rule="evenodd" d="M3.05556 0.166992C2.71805 0.166992 2.44444 0.440596 2.44444 0.778103C2.44444 1.11561 2.71805 1.38921 3.05556 1.38921H7.94444C8.28195 1.38921 8.55556 1.11561 8.55556 0.778103C8.55556 0.440596 8.28195 0.166992 7.94444 0.166992H3.05556ZM0 3.22255C0 2.88504 0.273604 2.61144 0.611111 2.61144H2.44444H8.55555H10.3889C10.7264 2.61144 11 2.88504 11 3.22255C11 3.56006 10.7264 3.83366 10.3889 3.83366L9.77778 3.83366V13.6114C9.77778 14.2865 9.23057 14.8337 8.55556 14.8337H2.44445C1.76943 14.8337 1.22222 14.2865 1.22222 13.6114V3.83366L0.611111 3.83366C0.273604 3.83366 0 3.56006 0 3.22255ZM2.44444 3.83366H8.55556V13.6114L2.44444 13.6114V3.83366Z" fill="#B3B3B3"/>
</svg>
