<svg width="40" height="24" viewBox="0 0 40 24" fill="none" xmlns="http://www.w3.org/2000/svg">
<g clip-path="url(#clip0_2093_3264)">
<path d="M14.3525 2.59229H25.9538V21.4058H14.3525V2.59229Z" fill="#878787"/>
<path d="M15.5478 12.0005C15.5464 10.1889 15.96 8.40076 16.7573 6.77133C17.5547 5.14191 18.7149 3.71391 20.1501 2.59541C18.3725 1.20832 16.2377 0.345768 13.9897 0.106339C11.7417 -0.13309 9.47121 0.260264 7.43772 1.24144C5.40423 2.22263 3.68978 3.75205 2.49032 5.65491C1.29086 7.55777 0.654785 9.7573 0.654785 12.0021C0.654785 14.2469 1.29086 16.4465 2.49032 18.3493C3.68978 20.2522 5.40423 21.7816 7.43772 22.7628C9.47121 23.744 11.7417 24.1373 13.9897 23.8979C16.2377 23.6585 18.3725 22.7959 20.1501 21.4088C18.7144 20.29 17.554 18.8615 16.7566 17.2314C15.9592 15.6014 15.5458 13.8126 15.5478 12.0004V12.0005Z" fill="#666666"/>
<path d="M39.647 12.0008C39.647 14.2458 39.0108 16.4455 37.8111 18.3484C36.6114 20.2514 34.8967 21.7807 32.863 22.7618C30.8292 23.7428 28.5585 24.1359 26.3103 23.8961C24.0622 23.6564 21.9274 22.7934 20.1499 21.4058C21.5846 20.2864 22.7445 18.858 23.542 17.2285C24.3396 15.599 24.754 13.8109 24.754 11.9991C24.754 10.1874 24.3396 8.39932 23.542 6.76981C22.7445 5.1403 21.5846 3.71192 20.1499 2.59243C21.9274 1.20489 24.0622 0.341911 26.3104 0.102133C28.5585 -0.137645 30.8292 0.255457 32.863 1.2365C34.8967 2.21755 36.6114 3.74695 37.8111 5.64989C39.0108 7.55283 39.647 9.75251 39.647 11.9975V12.0008Z" fill="#B3B3B3"/>
</g>
<defs>
<clipPath id="clip0_2093_3264">
<rect width="39" height="24" fill="white" transform="translate(0.650879)"/>
</clipPath>
</defs>
</svg>
