<svg width="73" height="22" viewBox="0 0 73 22" fill="none" xmlns="http://www.w3.org/2000/svg">
<g clip-path="url(#clip0_2093_3269)">
<path fill-rule="evenodd" clip-rule="evenodd" d="M7.0349 1.40764C7.67695 1.4038 9.58508 1.23194 10.3933 3.95978C10.9378 5.79728 11.805 8.80719 12.9951 12.9895H13.4798C14.7561 8.58021 15.6328 5.5703 16.11 3.95978C16.9267 1.20353 18.9683 1.4077 19.785 1.4077L26.0858 1.4077V21.0077H19.6638V9.45708H19.2332L15.6533 21.0077H10.8216L7.24172 9.44852H6.81108V21.0077H0.38916V1.4077L7.0349 1.40764ZM35.3075 1.4077V12.9669H35.8198L40.1745 3.46185C41.0198 1.57032 42.8214 1.4077 42.8214 1.4077H49.0359V21.0077H42.4799V9.44852H41.9675L37.6983 18.9535C36.853 20.8365 34.966 21.0077 34.966 21.0077H28.7515V1.4077H35.3075ZM71.6965 10.7218C70.782 13.3132 67.9101 15.1692 64.7305 15.1692H57.8552V21.0077H51.6208V10.7218H71.6965Z" fill="#878787"/>
<path fill-rule="evenodd" clip-rule="evenodd" d="M65.0313 1.40771H51.2939C51.6209 5.77134 55.3787 9.50688 59.2689 9.50688H72.1298C72.8719 5.8802 70.317 1.40771 65.0313 1.40771Z" fill="#B3B3B3"/>
</g>
<defs>
<clipPath id="clip0_2093_3269">
<rect width="72.3333" height="21" fill="white" transform="translate(0.266602 0.5)"/>
</clipPath>
</defs>
</svg>
