<svg width="39" height="24" viewBox="0 0 39 24" fill="none" xmlns="http://www.w3.org/2000/svg">
<g clip-path="url(#clip0_2093_3275)">
<path d="M8.10582 0.000488281H17.6726C19.008 0.000488281 19.8386 1.08899 19.5271 2.42885L15.0731 21.5517C14.7588 22.8869 13.4217 23.9763 12.0853 23.9763H2.51946C1.18589 23.9763 0.353428 22.8869 0.66496 21.5517L5.12085 2.42885C5.43238 1.08899 6.76875 0.000488281 8.10582 0.000488281Z" fill="#B3B3B3"/>
<path d="M16.8767 0H27.8783C29.2135 0 28.6114 1.0885 28.2973 2.42836L23.844 21.5512C23.5315 22.8864 23.629 23.9758 22.291 23.9758H11.2894C9.95141 23.9758 9.12338 22.8864 9.43771 21.5512L13.8908 2.42836C14.207 1.0885 15.5406 0 16.8767 0Z" fill="#666666"/>
<path d="M27.4417 0H37.0085C38.3458 0 39.1764 1.0885 38.8623 2.42836L34.409 21.5512C34.0946 22.8864 32.7566 23.9758 31.4195 23.9758H21.8572C20.5192 23.9758 19.6893 22.8864 20.0027 21.5512L24.4567 2.42836C24.7682 1.0885 26.1037 0 27.4417 0Z" fill="#878787"/>
<path d="M10.6045 6.12849C9.62074 6.13852 9.33019 6.12849 9.23739 6.10657C9.20171 6.2761 8.53784 9.33848 8.53597 9.34105C8.39303 9.96062 8.28903 10.4023 7.93576 10.6874C7.73522 10.8532 7.50111 10.9332 7.22968 10.9332C6.7934 10.9332 6.53923 10.7166 6.49656 10.3057L6.48839 10.1646C6.48839 10.1646 6.62131 9.33475 6.62131 9.33009C6.62131 9.33009 7.31806 6.53936 7.44281 6.17046C7.44934 6.14948 7.45121 6.13852 7.45284 6.12849C6.09665 6.14038 5.85624 6.12849 5.83968 6.10657C5.83059 6.13665 5.79701 6.30967 5.79701 6.30967L5.08557 9.45508L5.02447 9.72184L4.90625 10.5944C4.90625 10.8532 4.95708 11.0645 5.05829 11.2431C5.38241 11.8095 6.30698 11.8944 6.83001 11.8944C7.5039 11.8944 8.13606 11.7512 8.56325 11.4898C9.30477 11.0517 9.49878 10.3668 9.6718 9.75821L9.75202 9.44598C9.75202 9.44598 10.4698 6.54752 10.5917 6.17046C10.5964 6.14948 10.5982 6.13852 10.6045 6.12849ZM13.0466 8.46671C12.8736 8.46671 12.5574 8.50868 12.2734 8.64789C12.1703 8.70082 12.0728 8.76192 11.97 8.82278L12.0628 8.48769L12.012 8.43126C11.4096 8.55322 11.2749 8.56954 10.7185 8.64789L10.6719 8.6789C10.6073 9.21452 10.5499 9.61723 10.3104 10.6701C10.2192 11.0581 10.1246 11.4498 10.0297 11.8369L10.0553 11.8861C10.6255 11.856 10.7985 11.856 11.294 11.8642L11.3341 11.8206C11.3971 11.4981 11.4052 11.4225 11.5447 10.7694C11.6102 10.4597 11.7468 9.77929 11.8142 9.53702C11.938 9.47965 12.0602 9.42322 12.1768 9.42322C12.4545 9.42322 12.4207 9.6655 12.41 9.76204C12.3981 9.9241 12.2969 10.4534 12.1931 10.9079L12.1239 11.2012C12.0756 11.4179 12.0227 11.6284 11.9744 11.8432L11.9954 11.8861C12.5574 11.856 12.7288 11.856 13.2087 11.8642L13.2651 11.8206C13.3518 11.3169 13.3772 11.1821 13.5311 10.4488L13.6086 10.1118C13.759 9.45237 13.8345 9.11799 13.7207 8.84563C13.6004 8.54039 13.3117 8.46671 13.0466 8.46671ZM15.7746 9.15714C15.4759 9.2145 15.2854 9.25274 15.0961 9.27746C14.9084 9.30754 14.7253 9.33482 14.4366 9.37493L14.4138 9.39568L14.3928 9.41224C14.3627 9.62723 14.3417 9.81308 14.3019 10.0316C14.268 10.2575 14.216 10.5143 14.1314 10.8832C14.0659 11.1655 14.0321 11.2639 13.9948 11.3633C13.9584 11.4626 13.9183 11.5592 13.8446 11.8369L13.8618 11.8625L13.8763 11.8861C14.1461 11.8732 14.3226 11.8642 14.504 11.8625C14.6852 11.856 14.8729 11.8625 15.1635 11.8642L15.1889 11.8434L15.2162 11.8206C15.2581 11.5701 15.2644 11.5027 15.2901 11.3805C15.3155 11.2495 15.3593 11.0681 15.4668 10.5835C15.5177 10.3559 15.5743 10.129 15.627 9.89679C15.6818 9.66548 15.7392 9.43766 15.7938 9.21007L15.7856 9.18255L15.7746 9.15714ZM15.781 8.22623C15.5096 8.06603 15.0332 8.11686 14.7126 8.33815C14.3929 8.55501 14.3565 8.86281 14.627 9.02511C14.8937 9.18088 15.372 9.13447 15.6898 8.91132C16.0088 8.68979 16.0487 8.38479 15.781 8.22623ZM17.4225 11.9363C17.9716 11.9363 18.5345 11.7849 18.9582 11.3358C19.2842 10.9716 19.4337 10.4297 19.4855 10.2065C19.6541 9.46687 19.5228 9.12153 19.3579 8.9112C19.1075 8.59057 18.6649 8.48774 18.2058 8.48774C17.9297 8.48774 17.2721 8.51502 16.7584 8.98862C16.3895 9.33023 16.219 9.7938 16.1162 10.2382C16.0124 10.6911 15.893 11.5063 16.6427 11.8097C16.874 11.909 17.2075 11.9363 17.4225 11.9363ZM17.3796 10.2721C17.5062 9.71195 17.6557 9.24185 18.0372 9.24185C18.3361 9.24185 18.3578 9.59163 18.2249 10.1536C18.2011 10.2783 18.092 10.7422 17.9444 10.9397C17.8413 11.0854 17.7193 11.1738 17.5846 11.1738C17.5444 11.1738 17.3059 11.1738 17.3022 10.8196C17.3003 10.6447 17.336 10.4661 17.3796 10.2721ZM20.8582 11.8642L20.9011 11.8206C20.962 11.4982 20.972 11.4224 21.1068 10.7695C21.1742 10.4598 21.3136 9.77936 21.3791 9.53709C21.5032 9.47949 21.6233 9.42306 21.7436 9.42306C22.0195 9.42306 21.9859 9.66534 21.9749 9.76187C21.9649 9.92417 21.8637 10.4533 21.7581 10.9077L21.6925 11.2011C21.6424 11.4179 21.5878 11.6283 21.5396 11.8433L21.5606 11.8862C22.1244 11.8561 22.2893 11.8561 22.7719 11.8642L22.8302 11.8206C22.9149 11.3167 22.9377 11.182 23.0963 10.4488L23.1718 10.1116C23.323 9.45221 23.3994 9.11806 23.2875 8.8457C23.1637 8.54046 22.8731 8.46678 22.6117 8.46678C22.4385 8.46678 22.1207 8.50852 21.8383 8.64796C21.7373 8.70089 21.6361 8.76175 21.5368 8.82285L21.6233 8.48776L21.5769 8.4311C20.9748 8.55329 20.8372 8.56961 20.2815 8.64796L20.2389 8.67897C20.1715 9.21459 20.1167 9.61707 19.8772 10.6701C19.786 11.0581 19.6914 11.4499 19.5967 11.837L19.6221 11.8862C20.1932 11.8561 20.3636 11.8561 20.8582 11.8642ZM25.0008 11.8861C25.0363 11.713 25.2468 10.6875 25.2487 10.6875C25.2487 10.6875 25.428 9.93501 25.439 9.90773C25.439 9.90773 25.4954 9.82938 25.5518 9.79837H25.6348C26.4181 9.79837 27.3026 9.79837 27.9958 9.2884C28.4675 8.93862 28.79 8.42212 28.9339 7.79439C28.9712 7.64049 28.9987 7.45745 28.9987 7.2744C28.9987 7.03399 28.9505 6.79614 28.811 6.61029C28.4575 6.11571 27.7535 6.10662 26.9409 6.10289C26.9383 6.10289 26.5403 6.10662 26.5403 6.10662C25.5001 6.11944 25.0829 6.11571 24.9115 6.09473C24.8971 6.17051 24.8698 6.30529 24.8698 6.30529C24.8698 6.30529 24.4971 8.03224 24.4971 8.03504C24.4971 8.03504 23.6055 11.7067 23.5635 11.8798C24.4717 11.8688 24.8441 11.8688 25.0008 11.8861ZM25.6913 8.8183C25.6913 8.8183 26.0874 7.09485 26.0856 7.10138L26.0984 7.013L26.104 6.94561L26.2623 6.96193C26.2623 6.96193 27.0794 7.03212 27.0985 7.03399C27.421 7.15874 27.5539 7.4803 27.4611 7.90003C27.3765 8.28361 27.1277 8.6061 26.808 8.76187C26.5447 8.89385 26.2222 8.90481 25.8899 8.90481H25.6749L25.6913 8.8183ZM28.158 10.304C28.0533 10.7503 27.9329 11.5655 28.6789 11.856C28.9167 11.9572 29.1299 11.9873 29.3465 11.9764C29.5753 11.964 29.7872 11.8493 29.9836 11.6842C29.9658 11.752 29.9481 11.8199 29.9304 11.888L29.9642 11.9316C30.5008 11.909 30.6672 11.909 31.2486 11.9134L31.3013 11.8733C31.3862 11.3743 31.4661 10.8897 31.6867 9.93508C31.7942 9.47781 31.9015 9.02497 32.0118 8.56956L31.9945 8.51943C31.3943 8.63066 31.2339 8.65444 30.6565 8.73629L30.6127 8.77197C30.6069 8.81837 30.6008 8.86291 30.5952 8.90745C30.5054 8.76241 30.3753 8.63859 30.1745 8.5614C29.9178 8.46043 29.3148 8.59055 28.7964 9.06251C28.4322 9.39946 28.2573 9.86116 28.158 10.304ZM29.4186 10.3313C29.547 9.78118 29.6946 9.31575 30.0771 9.31575C30.3189 9.31575 30.4462 9.5389 30.4203 9.91946C30.3998 10.0144 30.3776 10.1144 30.3513 10.2275C30.313 10.391 30.2715 10.553 30.2312 10.7153C30.1902 10.8263 30.1424 10.931 30.0899 11.0007C29.9915 11.1402 29.7574 11.2267 29.6226 11.2267C29.5843 11.2267 29.3484 11.2267 29.3402 10.8788C29.3383 10.7055 29.374 10.5271 29.4186 10.3313ZM36.0014 8.51498L35.955 8.46204C35.3611 8.58237 35.2536 8.60149 34.708 8.67517L34.6678 8.71528C34.666 8.72181 34.6643 8.73184 34.6616 8.74093L34.6597 8.73184C34.2535 9.669 34.2654 9.46683 33.9347 10.2046C33.9329 10.171 33.9329 10.1501 33.931 10.1144L33.8482 8.51498L33.7962 8.46204C33.1741 8.58237 33.1594 8.60149 32.5848 8.67517L32.5401 8.71528C32.5338 8.7344 32.5338 8.75539 32.53 8.77824L32.5338 8.7864C32.6056 9.15343 32.5883 9.07158 32.6604 9.65081C32.694 9.93506 32.7387 10.2209 32.7723 10.5017C32.829 10.9716 32.8607 11.2029 32.9299 11.9199C32.5419 12.5602 32.45 12.8025 32.0765 13.3645L32.0791 13.3701L31.816 13.7861C31.7859 13.8299 31.7587 13.86 31.7204 13.8728C31.6784 13.8936 31.6239 13.8973 31.5481 13.8973H31.4024L31.1857 14.6178L31.9289 14.6307C32.3652 14.6288 32.6394 14.4248 32.787 14.1505L33.2543 13.3498H33.2468L33.296 13.2934C33.6104 12.6167 36.0014 8.51498 36.0014 8.51498ZM28.1579 17.9781H27.8427L29.0095 14.1187H29.3966L29.5195 13.7211L29.5314 14.1632C29.5169 14.4365 29.7319 14.6788 30.2967 14.6387H30.9498L31.1746 13.8956H30.9289C30.7875 13.8956 30.722 13.8599 30.7302 13.7834L30.7183 13.3336H29.5088V13.3359C29.1177 13.3441 27.9499 13.3735 27.7135 13.4364C27.4274 13.5101 27.1259 13.727 27.1259 13.727L27.2443 13.3289H26.1129L25.8772 14.1187L24.6947 18.0371H24.4653L24.2402 18.7749H26.4937L26.4182 19.0209H27.5286L27.6023 18.7749H27.9138L28.1579 17.9781ZM27.2334 14.9029C27.0522 14.953 26.715 15.1051 26.715 15.1051L27.0149 14.1187H27.9138L27.6969 14.8374C27.6969 14.8374 27.4192 14.8537 27.2334 14.9029ZM27.2506 16.312C27.2506 16.312 26.9682 16.3475 26.7824 16.3894C26.5994 16.4449 26.2561 16.6198 26.2561 16.6198L26.5658 15.5934H27.4694L27.2506 16.312ZM26.747 17.9872H25.8452L26.1066 17.1209H27.0056L26.747 17.9872ZM28.9185 15.5934H30.2183L30.0315 16.1982H28.7145L28.5167 16.8595H29.6691L28.7965 18.0882C28.7354 18.1784 28.6806 18.2104 28.6198 18.2358C28.5587 18.2668 28.4785 18.3032 28.3857 18.3032H28.066L27.8463 19.0274H28.6825C29.1172 19.0274 29.3739 18.8297 29.5635 18.5702L30.1618 17.7512L30.2903 18.5828C30.3176 18.7385 30.4295 18.8297 30.5053 18.8651C30.589 18.9071 30.6755 18.9792 30.7977 18.9899C30.9288 18.9955 31.0234 18.9999 31.0864 18.9999H31.4973L31.744 18.1894H31.5819C31.4889 18.1894 31.3287 18.1738 31.3014 18.1446C31.2741 18.1092 31.2741 18.0546 31.2594 17.9716L31.1291 17.1382H30.5953L30.8294 16.8595H32.1439L32.346 16.1982H31.1291L31.3186 15.5934H32.5319L32.7569 14.8474H29.1398L28.9185 15.5934ZM17.9407 18.1556L18.244 17.1464H19.4909L19.7187 16.3958H18.4707L18.6612 15.7746H19.8808L20.1067 15.0478H17.0553L16.834 15.7746H17.5272L17.3423 16.3958H16.6472L16.4168 17.1592H17.1098L16.7055 18.4944C16.6509 18.6712 16.7312 18.7386 16.782 18.8207C16.834 18.9007 16.8867 18.9536 17.0051 18.9837C17.1273 19.0109 17.211 19.0273 17.3248 19.0273H18.7305L18.9809 18.1957L18.3578 18.2813C18.2375 18.2813 17.9043 18.2669 17.9407 18.1556ZM18.0837 13.3244L17.7677 13.8954C17.7001 14.0202 17.6392 14.0976 17.5844 14.1333C17.5362 14.1634 17.4406 14.176 17.3021 14.176H17.1372L16.9168 14.9065H17.4643C17.7276 14.9065 17.9298 14.81 18.0263 14.7617C18.1301 14.7062 18.1574 14.7379 18.2376 14.6605L18.4225 14.5003H20.1322L20.3591 13.7397H19.1076L19.3261 13.3244H18.0837ZM20.6077 18.1703C20.5786 18.1283 20.5996 18.0544 20.6441 17.9005L21.1114 16.3538H22.7738C23.0161 16.3503 23.1909 16.3475 23.3047 16.3394C23.4269 16.3265 23.5598 16.2829 23.7046 16.2046C23.8541 16.1225 23.9306 16.036 23.9952 15.9366C24.0672 15.8375 24.1829 15.6207 24.2822 15.2863L24.8696 13.329L23.1445 13.339C23.1445 13.339 22.6133 13.4173 22.3795 13.5039C22.1435 13.6004 21.8063 13.8699 21.8063 13.8699L21.9621 13.3334H20.8964L19.4045 18.2813C19.3516 18.4734 19.3161 18.6129 19.308 18.6966C19.3052 18.7868 19.4218 18.8761 19.4973 18.9435C19.5866 19.0109 19.7186 19 19.8452 19.0109C19.9784 19.021 20.1677 19.0272 20.4291 19.0272H21.2481L21.4994 18.1785L20.7663 18.2477C20.688 18.2477 20.6313 18.2057 20.6077 18.1703ZM21.4129 15.3091H23.159L23.048 15.6571C23.0324 15.6652 22.9951 15.6398 22.8174 15.6608H21.3054L21.4129 15.3091ZM21.7627 14.1423H23.5235L23.3968 14.5613C23.3968 14.5613 22.5669 14.5532 22.434 14.5777C21.8492 14.6789 21.5076 14.9913 21.5076 14.9913L21.7627 14.1423ZM23.0871 16.8221C23.0726 16.8741 23.0498 16.9058 23.0178 16.9296C22.9824 16.9525 22.925 16.9606 22.8394 16.9606H22.5906L22.6053 16.5369H21.5705L21.5285 18.6083C21.5269 18.7578 21.5413 18.8443 21.6507 18.9135C21.76 19 22.097 19.011 22.5505 19.011H23.199L23.4331 18.2357L22.8686 18.2667L22.6809 18.2776C22.6552 18.2667 22.6307 18.2566 22.6035 18.2294C22.5797 18.2058 22.5396 18.2203 22.5461 18.0708L22.5505 17.5398L23.1426 17.5154C23.4623 17.5154 23.5989 17.4114 23.7155 17.3123C23.8267 17.2174 23.8631 17.1082 23.9051 16.9606L24.0044 16.4905H23.1909L23.0871 16.8221Z" fill="#FEFEFE"/>
</g>
<defs>
<clipPath id="clip0_2093_3275">
<rect width="38.4" height="24" fill="white" transform="translate(0.599609)"/>
</clipPath>
</defs>
</svg>
