<svg width="66" height="22" viewBox="0 0 66 22" fill="none" xmlns="http://www.w3.org/2000/svg">
<path d="M34.0685 7.23797C34.0317 10.1445 36.6588 11.7666 38.6379 12.7309C40.6713 13.7205 41.3543 14.3549 41.3466 15.2397C41.331 16.594 39.7245 17.1916 38.2207 17.2149C35.5975 17.2557 34.0724 16.5067 32.8597 15.9402L31.9148 20.3621C33.1314 20.9228 35.384 21.4118 37.7202 21.4331C43.2034 21.4331 46.791 18.7264 46.8104 14.5296C46.8318 9.20347 39.4431 8.90856 39.4936 6.52782C39.5111 5.80604 40.1999 5.03574 41.7094 4.83977C42.4564 4.74082 44.519 4.66514 46.857 5.742L47.7747 1.46367C46.5174 1.00577 44.9012 0.567259 42.8891 0.567259C37.7279 0.567259 34.0976 3.31083 34.0685 7.23797ZM56.5934 0.935913C55.5922 0.935913 54.7482 1.51994 54.3717 2.41635L46.5388 21.1188H52.0182L53.1086 18.1055H59.8046L60.4371 21.1188H65.2665L61.0522 0.935913H56.5934ZM57.3598 6.38812L58.9411 13.9669H54.6104L57.3598 6.38812ZM27.425 0.935913L23.1059 21.1188H28.3272L32.6444 0.935913H27.425ZM19.7007 0.935913L14.2659 14.6731L12.0676 2.99262C11.8095 1.68875 10.7909 0.935913 9.65967 0.935913H0.775068L0.650879 1.52188C2.47475 1.9177 4.54698 2.55606 5.80235 3.23904C6.57071 3.6562 6.78996 4.02097 7.04219 5.01246L11.2061 21.1188H16.7243L25.1839 0.935913H19.7007Z" fill="#666666"/>
</svg>
